<svg width="19" height="11" viewBox="0 0 19 11" fill="none" xmlns="http://www.w3.org/2000/svg">
<path d="M11.1588 1.617C14.4341 1.61701 17.1139 5.05963 17.1139 5.92028C17.1139 6.78094 14.4341 9.64979 11.1588 9.64979C7.88352 9.64979 5.5015 5.92028 5.5015 5.92028C5.5015 5.92028 7.88352 1.617 11.1588 1.617Z" fill="#FFFDFB"/>
<path d="M1.92847 2.47766L5.5015 5.92028M5.5015 5.92028L1.92847 9.36291M5.5015 5.92028C5.5015 5.92028 7.88352 9.64979 11.1588 9.64979C14.4341 9.64979 17.1139 6.78094 17.1139 5.92028C17.1139 5.05963 14.4341 1.61701 11.1588 1.617C7.88352 1.617 5.5015 5.92028 5.5015 5.92028Z" stroke="#FFFDFB" stroke-width="2" stroke-linecap="round" stroke-linejoin="round"/>
</svg>
